<?xml version="1.0" encoding="UTF-8"?>
<!DOCTYPE svg PUBLIC "-//W3C//DTD SVG 1.1//EN" "http://www.w3.org/Graphics/SVG/1.1/DTD/svg11.dtd">
<!-- Creator: CorelDRAW X7 -->
<svg xmlns="http://www.w3.org/2000/svg" xml:space="preserve" width="60mm" height="38mm" version="1.1" style="shape-rendering:geometricPrecision; text-rendering:geometricPrecision; image-rendering:optimizeQuality; fill-rule:evenodd; clip-rule:evenodd"
viewBox="0 0 6000 3800"
 xmlns:xlink="http://www.w3.org/1999/xlink">
 <defs>
  <style type="text/css">
   <![CDATA[
    .fil0 {fill:#4472A2}
    .fil1 {fill:url(#id0)}
    .fil2 {fill:url(#id1)}
   ]]>
  </style>
  <linearGradient id="id0" gradientUnits="userSpaceOnUse" x1="-4968.95" y1="1900" x2="10969" y2="1900">
   <stop offset="0" style="stop-opacity:1; stop-color:#FF6821"/>
   <stop offset="1" style="stop-opacity:1; stop-color:#FFA15A"/>
  </linearGradient>
  <linearGradient id="id1" gradientUnits="userSpaceOnUse" xlink:href="#id0" x1="605.29" y1="1900.43" x2="5385.12" y2="1900.43">
  </linearGradient>
 </defs>
<symbol id="Символ3" viewBox="-201 -2147 6401 8094">
 <path class="fil0" d="M1003 -1965l-1204 7912 2075 0 393 -2627c298,566 750,850 1358,850 775,0 1398,-385 1870,-1158 470,-771 706,-1635 706,-2593 0,-785 -170,-1410 -511,-1872 -339,-463 -788,-694 -1347,-694 -285,0 -549,71 -792,211 -241,142 -486,448 -737,921l140 -950 -1951 0zm1511 3950c0,-266 79,-868 237,-1807 133,-544 367,-816 706,-816 392,0 588,296 588,887 0,241 -46,612 -140,1113 -92,501 -201,852 -326,1049 -124,199 -292,298 -503,298 -177,0 -316,-67 -415,-202 -98,-134 -147,-309 -147,-522z"/>
</symbol>
<symbol id="Символ5" viewBox="48 -1265 5904 6329">
 <path class="fil0" d="M949 -267c-601,666 -901,1516 -901,2550 0,861 258,1538 776,2035 518,497 1155,747 1916,747 877,0 1631,-319 2263,-958 632,-637 949,-1525 949,-2661 0,-765 -245,-1408 -737,-1930 -492,-521 -1157,-781 -1994,-781 -916,0 -1673,333 -2272,998zm1233 2938c0,-402 72,-917 217,-1550 144,-633 406,-949 782,-949 425,0 637,316 637,951 0,416 -68,935 -206,1554 -137,619 -398,927 -782,927 -433,0 -648,-310 -648,-933z"/>
</symbol>
<symbol id="Символ1" viewBox="48 -1265 5904 6329">
 <path class="fil0" d="M2399 1121c144,-633 406,-949 782,-949 425,0 637,316 637,951 0,416 -68,935 -206,1554 -137,619 -398,927 -782,927 -433,0 -648,-310 -648,-933 0,-402 72,-917 217,-1550zm2604 2986c632,-637 949,-1525 949,-2661 0,-765 -245,-1408 -737,-1930 -492,-521 -1157,-781 -1994,-781 -916,0 -1673,333 -2272,998 -601,666 -901,1516 -901,2550 0,861 258,1538 776,2035 518,497 1155,747 1916,747 877,0 1631,-319 2263,-958z"/>
</symbol>
<symbol id="Символ2" viewBox="-4969 -3008 15938 9816">
 <polygon class="fil1" points="10969,-3008 -4969,-3008 5005,6808 5813,2149 1713,2149 1713,-1019 9789,-957 "/>
</symbol>
<symbol id="Символ4" viewBox="170 -1240 5660 6281">
 <path class="fil0" d="M689 871c0,362 94,678 284,952 188,274 418,473 687,598 269,126 725,264 1362,420 321,77 522,138 601,185 79,45 118,116 118,209 0,99 -59,188 -179,266 -118,77 -300,115 -545,115 -631,0 -1012,-215 -1145,-645l-1702 274c129,598 451,1047 967,1347 516,298 1122,448 1817,448 934,0 1631,-207 2089,-620 459,-416 688,-923 688,-1526 0,-333 -78,-633 -234,-895 -157,-263 -391,-480 -699,-651 -309,-172 -842,-328 -1597,-470 -371,-71 -555,-213 -555,-422 0,-238 192,-357 575,-357 549,0 885,194 1006,584l1603 -386c-129,-444 -436,-811 -923,-1101 -484,-290 -1070,-436 -1758,-436 -755,0 -1354,198 -1796,594 -443,398 -664,903 -664,1517z"/>
</symbol>
<symbol id="Символ6" viewBox="-1260 -2403 8520 8606">
 <path class="fil0" d="M-381 1575l-702 4628 1999 -8 709 -4581 1355 5 217 -1528 -1330 -5c9,-334 77,-573 201,-721 123,-147 364,-221 726,-222 162,0 381,19 661,59l216 -1442c-389,-107 -817,-161 -1285,-163 -532,-2 -973,84 -1321,257 -348,173 -612,406 -790,702 -178,294 -315,794 -415,1497l-888 -3 -232 1528 879 -3zm4410 41l-320 2097c-64,422 -97,712 -97,866 0,367 67,666 202,891 136,225 312,399 526,521 215,123 543,185 987,185 358,0 732,-45 1121,-134l237 -1570c-195,48 -368,73 -516,73 -342,0 -512,-146 -512,-439 0,-56 17,-188 50,-397l330 -2134 985 0 238 -1534 -986 0 367 -2279 -2073 508 -290 1820 -1081 1 -217 1528 1049 -3z"/>
</symbol>
 <g id="Слой_x0020_1">
  <metadata id="CorelCorpID_0Corel-Layer"/>
  <g id="_1812305970768">
   <polygon class="fil2" points="5385,429 605,429 3597,3372 3839,1975 2609,1975 2609,1025 5031,1044 "/>
  </g>
 </g>
</svg>
